<?xml version="1.0" standalone="no"?>
<!DOCTYPE svg PUBLIC "-//W3C//DTD SVG 20010904//EN"
 "http://www.w3.org/TR/2001/REC-SVG-20010904/DTD/svg10.dtd">
<svg version="1.0" xmlns="http://www.w3.org/2000/svg"
 width="597.000000pt" height="418.000000pt" viewBox="0 0 597.000000 418.000000"
 preserveAspectRatio="xMidYMid meet">

<g transform="translate(0.000000,418.000000) scale(0.100000,-0.100000)"
fill="#000000" stroke="none">
<path d="M4402 3184 l3 -236 230 -109 c127 -59 233 -108 238 -109 4 0 6 95 5
212 l-3 212 -230 133 c-126 73 -233 133 -238 133 -4 0 -6 -106 -5 -236z"/>
<path d="M4270 3388 c-19 -12 -118 -70 -220 -128 l-185 -107 -3 -211 c-1 -117
-1 -212 1 -212 2 0 105 47 228 105 l224 105 3 235 c1 129 -1 235 -5 235 -5 0
-24 -10 -43 -22z"/>
<path d="M3450 2890 l0 -171 73 -33 c39 -19 116 -54 170 -79 l97 -46 0 153 0
153 -162 93 c-90 51 -166 95 -170 97 -5 2 -8 -73 -8 -167z"/>
<path d="M5065 2851 c-151 -68 -155 -266 -7 -349 l42 -23 0 -154 c0 -85 -3
-156 -7 -158 -5 -2 -54 5 -110 17 l-103 21 0 146 0 146 -227 108 c-126 59
-234 109 -240 112 -10 4 -13 -45 -13 -227 l0 -231 -37 3 -38 3 -3 218 c-1 119
-4 217 -6 217 -1 0 -81 -38 -177 -84 -96 -46 -198 -94 -226 -106 l-53 -22 -1
-77 c-1 -42 -1 -90 0 -108 2 -23 -3 -35 -18 -42 -39 -21 -51 -5 -51 69 0 61
-2 69 -21 75 -12 4 -87 38 -166 76 -80 38 -147 69 -149 69 -2 0 -4 -72 -4
-160 0 -158 0 -160 -22 -164 -13 -2 -97 -12 -187 -21 -90 -9 -175 -21 -188
-26 -13 -5 -39 -9 -58 -9 -29 0 -34 4 -37 27 -3 28 -33 46 -195 119 l-53 24 0
-111 c0 -107 -1 -110 -21 -107 -21 3 -22 8 -20 95 1 50 -2 94 -7 97 -5 3 -60
-18 -121 -46 l-111 -52 0 -72 c0 -40 -3 -75 -7 -77 -5 -3 -29 -8 -55 -12 -40
-6 -48 -5 -48 9 0 9 4 16 9 16 17 0 22 33 7 48 -17 18 -56 7 -56 -15 0 -9 8
-25 17 -36 17 -18 17 -19 -2 -33 -10 -8 -22 -14 -27 -14 -4 0 -8 38 -8 84 0
76 2 85 20 91 24 8 50 54 50 89 0 14 -11 37 -24 53 -34 39 -98 39 -132 0 -38
-44 -27 -111 22 -138 23 -12 24 -18 24 -100 0 -84 -1 -89 -22 -93 -91 -20
-678 -167 -698 -175 -24 -11 -24 -11 5 -6 417 67 1140 150 1565 180 872 59
1658 53 2315 -20 72 -8 153 -17 180 -20 l50 -5 -65 32 c-36 18 -103 46 -150
64 l-85 32 -3 65 c-3 57 0 66 16 72 28 8 45 55 33 88 -19 49 -71 61 -115 26
-38 -30 -36 -80 5 -112 27 -21 30 -28 27 -73 -3 -53 -12 -57 -71 -35 l-27 11
0 170 0 170 38 19 c77 40 112 97 112 183 0 74 -35 129 -102 162 -61 30 -108
33 -163 7z"/>
<path d="M2710 2581 l0 -118 119 -57 c66 -31 123 -56 126 -56 3 0 4 48 3 107
l-3 107 -115 68 c-63 37 -118 68 -122 68 -5 0 -8 -53 -8 -119z"/>
<path d="M2610 2666 c-19 -13 -68 -42 -107 -65 l-73 -42 0 -99 c0 -74 3 -100
13 -100 6 1 59 23 117 49 l105 49 2 116 c1 128 0 130 -57 92z"/>
<path d="M370 1735 c-149 -42 -197 -149 -188 -420 7 -207 38 -274 153 -327 44
-20 66 -23 176 -23 120 0 128 1 184 30 73 38 117 106 119 188 l1 52 -76 3 -77
3 -6 -45 c-9 -58 -43 -92 -101 -101 -116 -17 -197 28 -210 117 -4 26 -5 107
-4 181 4 118 7 139 25 164 41 57 127 77 215 53 42 -12 64 -40 74 -94 l7 -36
79 0 c89 0 89 -1 68 90 -27 121 -107 172 -279 177 -72 2 -122 -2 -160 -12z"/>
<path d="M1088 1737 c-153 -44 -205 -155 -196 -425 4 -129 6 -142 36 -205 36
-78 89 -119 181 -138 91 -19 229 -7 296 25 102 50 135 122 142 311 10 240 -28
352 -140 409 -51 26 -69 30 -165 33 -68 2 -124 -2 -154 -10z m239 -143 c52
-38 58 -64 58 -239 0 -175 -6 -201 -58 -239 -23 -17 -43 -21 -106 -21 -138 0
-163 35 -169 230 -7 242 27 298 180 292 49 -2 75 -8 95 -23z"/>
<path d="M1903 1731 c-29 -11 -66 -29 -82 -40 -16 -12 -31 -21 -34 -21 -2 0
-10 14 -17 30 -12 29 -15 30 -71 30 l-59 0 0 -375 0 -375 80 0 80 0 0 283 c0
319 -5 298 80 336 77 35 146 24 171 -28 9 -19 14 -104 17 -308 l4 -283 73 0
c57 0 74 3 79 16 3 9 6 139 6 289 l0 274 46 27 c53 31 127 41 164 22 43 -23
49 -62 49 -355 l1 -273 81 0 81 0 -4 313 c-3 310 -3 312 -28 362 -36 73 -72
90 -186 90 -84 0 -95 -3 -164 -37 -73 -36 -75 -36 -93 -17 -52 56 -181 75
-274 40z"/>
<path d="M3043 1735 c-23 -7 -62 -24 -87 -39 l-44 -26 -12 30 c-12 28 -15 30
-71 30 l-59 0 0 -505 0 -505 80 0 80 0 0 150 c0 83 4 150 9 150 5 0 35 -12 67
-27 52 -25 71 -28 154 -28 77 1 103 5 135 22 102 54 135 143 135 368 0 240
-46 345 -164 380 -60 18 -166 18 -223 0z m147 -133 c58 -29 72 -67 78 -206 7
-197 -19 -275 -100 -297 -55 -14 -149 2 -200 36 l-38 25 0 194 c0 221 -2 214
92 247 67 23 124 24 168 1z"/>
<path d="M3698 1737 c-101 -29 -162 -98 -170 -192 l-3 -40 77 -3 c72 -3 77 -2
83 20 24 85 107 118 218 87 49 -13 68 -45 73 -124 5 -76 16 -71 -153 -80 -135
-8 -202 -24 -250 -61 -93 -70 -99 -240 -12 -319 92 -82 268 -87 391 -9 20 13
39 24 42 24 2 0 9 -13 16 -30 12 -28 16 -30 66 -30 l54 0 0 303 c0 271 -2 306
-19 342 -22 49 -68 90 -119 106 -58 17 -239 21 -294 6z m278 -489 c-2 -35 -3
-71 -4 -80 -1 -10 -24 -29 -54 -44 -67 -34 -178 -40 -220 -12 -50 33 -46 132
6 161 22 12 163 34 232 36 l42 1 -2 -62z"/>
<path d="M4518 1731 c-31 -10 -72 -28 -91 -40 l-35 -21 -12 30 c-12 29 -15 30
-71 30 l-59 0 0 -375 0 -375 80 0 80 0 0 285 0 285 38 25 c21 14 64 31 95 37
71 15 123 3 151 -35 20 -27 21 -42 24 -313 l3 -284 79 0 80 0 0 280 c0 161 -5
300 -11 329 -13 62 -44 109 -88 135 -50 29 -186 33 -263 7z"/>
<path d="M4910 1727 c0 -1 43 -122 96 -267 52 -146 113 -315 135 -377 l40
-112 -25 -53 c-14 -29 -35 -59 -47 -66 -19 -12 -112 -18 -150 -10 -11 2 -14
-11 -14 -62 l0 -65 54 -9 c66 -11 158 4 207 35 19 12 46 39 59 60 14 21 67
158 119 306 52 147 122 345 155 438 34 94 61 173 61 178 0 4 -38 7 -84 7 l-85
0 -16 -57 c-9 -32 -34 -114 -55 -183 -21 -69 -50 -165 -65 -215 -15 -49 -30
-93 -34 -97 -7 -8 -24 41 -116 342 -31 102 -58 191 -60 198 -3 8 -30 12 -90
12 -47 0 -85 -1 -85 -3z"/>
</g>
</svg>
